<?xml version="1.0" encoding="utf-8"?>
<!-- Generator: Adobe Illustrator 19.0.0, SVG Export Plug-In . SVG Version: 6.00 Build 0)  -->
<svg version="1.1" id="Layer_1" xmlns="http://www.w3.org/2000/svg" xmlns:xlink="http://www.w3.org/1999/xlink" x="0px" y="0px"
	 viewBox="0 0 30 30" style="enable-background:new 0 0 30 30;" xml:space="preserve">
<style type="text/css">
	.st0{fill:#FFFFFF;}
	.st1{fill:none;stroke:#FFFFFF;stroke-width:3;stroke-miterlimit:10;}
</style>
<g id="XMLID_4_">
	<circle id="XMLID_2_" class="st0" cx="6.5" cy="4.3" r="4.3"/>
	<circle id="XMLID_3_" class="st0" cx="6.5" cy="25.7" r="4.3"/>
	<line id="XMLID_6_" class="st1" x1="6.2" y1="25.7" x2="22.2" y2="15.9"/>
	<line id="XMLID_7_" class="st1" x1="22.6" y1="14.1" x2="6.4" y2="4.2"/>
	<path id="XMLID_13_" class="st0" d="M23.8,10.8c-2.4,0-4.3,1.9-4.3,4.3s1.9,4.3,4.3,4.3s4.3-1.9,4.3-4.3S26.2,10.8,23.8,10.8z
		 M25.5,16.7L25.5,16.7c-0.1,0.2-0.3,0.2-0.5,0.1l-1.2-0.9c-0.1,0.1-0.2,0.1-0.3,0l0,0c-0.2-0.1-0.2-0.3-0.2-0.4l0,0
		c-0.2-0.1-0.2-0.3-0.1-0.5c0.1-0.1,0.2-0.2,0.4-0.1l1.1-2.5c0.1-0.2,0.3-0.2,0.4-0.2l0,0c0.2,0.1,0.2,0.3,0.2,0.4l-1.2,2.6l1.3,0.9
		C25.6,16.3,25.6,16.5,25.5,16.7z"/>
</g>
</svg>
