<?xml version="1.0" encoding="utf-8"?>
<!-- Generator: Adobe Illustrator 19.0.0, SVG Export Plug-In . SVG Version: 6.00 Build 0)  -->
<svg version="1.1" id="Layer_1" xmlns="http://www.w3.org/2000/svg" xmlns:xlink="http://www.w3.org/1999/xlink" x="0px" y="0px"
	 viewBox="0 0 400 150" style="enable-background:new 0 0 400 150;" xml:space="preserve">
<style type="text/css">
	.st0{fill:#B3D336;}
	.st1{fill:none;stroke:#B3D336;stroke-width:15;stroke-miterlimit:10;}
</style>
<g id="XMLID_2_">
	<path id="XMLID_3_" class="st0" d="M21,67.2c0,0.2-0.2,0.5-0.5,0.9c-0.6-0.2-1.2-0.2-1.9-0.2c-1.3,0-2.4,0.3-3.3,0.9
		c-1.1,0.7-1.6,1.6-1.6,2.8c0,0.8,0.6,1.8,1.7,3c1.7,1.8,2.8,3,3.2,3.6c1.1,1.7,1.7,3.5,1.7,5.4c0,1.1-0.2,2.3-0.7,3.6
		c-0.5,1.4-1.2,2.4-1.9,3.1C16,91.8,14.1,93,11.9,94c-2.4,1-4.6,1.5-6.6,1.5c-0.4,0-1.4-1.2-3-3.6C0.8,89.5,0,88,0,87.5
		c0-0.2,0.1-0.3,0.4-0.4c1.6-0.3,3.1-0.6,4.7-0.9C7,85.6,8,84.6,8,83.1c0-1-0.6-2.1-1.7-3.4c-2-2.3-3.1-3.4-3.2-3.6
		c-1.1-1.6-1.7-3.3-1.7-5.1c0-3.3,1.7-6.2,5.1-8.5c3-2.1,6.3-3.1,9.7-3.1c0.4,0,1.2,1.2,2.6,3.6C20.3,65.4,21,66.8,21,67.2z"/>
	<path id="XMLID_5_" class="st0" d="M57.5,70l-0.1,23.1c0,0.8-0.3,1.2-0.9,1.3c-0.7,0.1-2.3,0.1-4.9,0.1c-2.5,0-4.2-0.1-5.1-0.3
		c-0.7-0.1-1.1-0.6-1.1-1.4c0-1.9,0-4.8,0.1-8.7c0.1-3.9,0.1-6.7,0.1-8.7c0-2.6-1.3-3.9-4-3.9c-0.9,0-1.9,0.4-3.1,1.1
		c-1.3,0.8-2,1.6-2,2.4v8.3c0,1.1,0,2.7,0.1,4.8c0,2.2,0.1,3.8,0.1,4.8c0,0.8-0.3,1.3-1,1.4c-0.7,0.1-2.6,0.1-5.8,0.1
		c-1.8,0-3.1-0.1-3.9-0.3c-0.8-0.2-1.2-0.6-1.2-1.2c0-1.8,0-4.4,0-7.9c0-3.5,0-6.2,0-7.9c0-7.3-0.1-13.3-0.2-18.1
		c-0.1-1.7-0.1-3.3-0.2-5c-0.1-1.9-0.3-3.6-0.6-5c-0.1-0.3-0.1-0.5-0.1-0.6c0-0.3,0.2-0.6,0.5-0.7c0.7-0.2,1.7-0.3,3-0.4
		c1.8-0.1,2.8-0.1,3.1-0.2l6.1-0.7c0.4,0,0.5,0.2,0.5,0.7c0,0.7,0,1.7-0.1,2.9c-0.1,1.4-0.1,2.4-0.1,2.9c-0.1,5-0.2,9-0.2,11.9
		c0,0.4,0.1,0.7,0.3,0.7c0,0,0.6-0.4,1.7-1.2c1.3-0.9,2.5-1.6,3.7-2.2c1.8-0.8,3.5-1.2,5.1-1.2c2.9,0,5.2,0.7,7.2,2.2
		C56.4,65.1,57.5,67.3,57.5,70z"/>
	<path id="XMLID_7_" class="st0" d="M94.8,77.6c0,1.7,0.1,4.3,0.3,7.7c0.2,3.4,0.3,5.9,0.3,7.6c0,0.9-0.4,1.4-1.2,1.4
		c-2.8,0.2-5.9,0.3-9.5,0.3c-0.4,0-0.7-0.6-0.9-1.9c-0.1-1.3-0.3-1.9-0.5-2c-0.2,0.1-0.4,0.3-0.7,0.6c-2.5,2.5-5.2,3.8-8,3.8
		c-4.3,0-7.9-1.7-10.8-5.1c-2.7-3.2-4-7-4-11.5c0-5.1,1.4-9.3,4.2-12.4c2.9-3.3,6.9-4.9,11.9-4.9c3.5,0,6.3,1.2,8.3,3.7
		c0.1,0.1,0.2,0.2,0.2,0.2c0.2,0,0.4-0.5,0.7-1.6c0.3-1.1,0.6-1.6,0.9-1.6c0.8,0,2.4,0.2,4.7,0.7c2.2,0.4,3.8,0.8,4.7,1.1
		c0.3,0.1,0.5,0.3,0.5,0.5c0,0.1,0,0.3-0.1,0.7C95.2,68.8,94.8,73.1,94.8,77.6z M84,77.8c0-1.9-0.6-3.5-1.8-4.7
		c-1.2-1.2-2.7-1.9-4.7-1.9c-1.9,0-3.5,0.6-4.6,1.8c-1.2,1.2-1.8,2.8-1.8,4.7c0,1.8,0.6,3.4,1.9,4.6c1.2,1.3,2.8,1.9,4.5,1.9
		c1.9,0,3.4-0.6,4.6-1.9C83.4,81.3,84,79.7,84,77.8z"/>
	<path id="XMLID_10_" class="st0" d="M121.9,73.5c0,0.9-0.5,1.3-1.4,1.3c-0.4,0-1,0-1.9-0.1c-0.8-0.1-1.4-0.1-1.8-0.1
		c-1.9,0-3.1,0.3-3.8,0.9c-0.7,0.6-1,1.7-1,3.5c0,1,0,2.4,0.1,4.4c0,2,0.1,3.4,0.1,4.4c0,0.6,0,1.6,0.1,2.9c0.1,1.3,0.1,2.2,0.1,2.9
		c0,0.5-0.4,0.8-1.1,0.9c-1.1,0.1-2.7,0.1-4.9,0.1c-2.1,0-3.8-0.1-5.1-0.2c-0.7-0.1-1.1-0.5-1.1-1.1c0-1.8,0-4.5,0-8
		c0-3.6,0-6.2,0-8c0-5.2-0.5-9.5-1.4-12.9c0-0.2-0.1-0.4-0.1-0.5c0-0.3,0.2-0.6,0.5-0.7c1.2-0.1,3-0.4,5.4-0.7c3.5-0.7,5.3-1,5.4-1
		c0.4,0,0.7,0.7,0.8,2.1c0.1,1.4,0.3,2.1,0.6,2.1c-0.3,0,0.6-0.6,2.7-1.8c2.1-1.2,4.2-1.8,6.2-1.8c1.2,0,1.9,0.3,1.9,0.8
		c0,0.6-0.1,1.6-0.2,2.7c-0.1,1.3-0.2,2.2-0.2,2.7c0,0.6,0,1.5,0,2.6C121.9,72.2,121.9,73,121.9,73.5z"/>
	<path id="XMLID_12_" class="st0" d="M154.7,76.1c0,2.3-0.7,3.5-2.2,3.8c-0.2,0-2.6,0.3-6.9,0.7c-2.6,0.3-6.6,0.6-11.8,1
		c0.3,1.4,1.3,2.6,2.8,3.3c1.3,0.6,2.8,0.9,4.4,0.9c2,0,4-0.5,6-1.6c0.8-0.5,1.7-1.1,2.5-1.6c0.5,0.2,1.3,1.4,2.4,3.4
		c1.1,2.1,1.7,3.4,1.7,3.9c0,0.2-0.2,0.4-0.5,0.8c-2.7,2.9-6.9,4.4-12.7,4.4c-5.3,0-9.6-1.5-12.8-4.6c-3.3-3.1-5-7.3-5-12.6
		c0-5.1,1.5-9.3,4.5-12.6c3.1-3.4,7.2-5.1,12.2-5.1c4.3,0,7.9,1.6,10.9,4.7C153.2,68.1,154.7,71.8,154.7,76.1z M143,74.1
		c0-1.4-0.5-2.6-1.5-3.6c-1-1-2.2-1.6-3.5-1.6c-1.4,0-2.6,0.6-3.5,1.8c-0.8,1.1-1.3,2.4-1.3,3.8c0,0.6,0.3,0.9,0.9,0.9
		c1.6,0,4.2-0.3,7.7-0.8C142.7,74.5,143,74.3,143,74.1z"/>
	<path id="XMLID_15_" class="st0" d="M177.3,72.7c0,0.5-0.3,0.8-0.9,0.8c-2.4,0-4.3-0.1-5.7-0.2c0.1,1.7,0.1,4,0.2,7
		c0,1.3,0.1,3.5,0.3,6.6c0.2,2.8,0.2,5,0.2,6.6c0,0.5-0.3,0.7-0.9,0.8c-0.8,0.1-2.7,0.1-5.7,0.1c-2.5,0-4.2-0.1-4.9-0.2
		c-0.8-0.1-1.1-0.6-1.1-1.4V74.5c0-0.6-0.4-1-1.3-1c-0.2,0-0.4,0-0.8,0c-0.3,0-0.6,0-0.8,0c-0.6,0-0.9-0.2-1-0.5
		c-0.2-1.9-0.3-4.8-0.3-8.5c0-0.8,0.4-1.3,1.3-1.5c0.8-0.1,1.5-0.1,2.3-0.2c-0.1-1.8-0.2-3.2-0.2-4.2c0-3.8,0.7-6.6,2.2-8.4
		c3-3.5,7.8-5.2,14.4-5.2c0.4,0,0.7,0.1,0.8,0.4c0.2,1,0.4,2.5,0.8,4.4c0,0.2,0.2,0.8,0.4,1.9c0.2,0.8,0.3,1.5,0.3,1.9
		c0,0.5-0.8,0.9-2.4,1c-1.8,0.2-3,0.5-3.4,1c-0.7,0.8-1.1,2.4-1.1,4.7c0,0.7,0.1,1.4,0.2,2.1c0.6,0,1.6,0,2.9-0.1
		c1.3,0,2.3-0.1,3-0.1c0.7,0,1,0.2,1,0.7c0,1,0,2.6,0,4.7C177.2,70.1,177.3,71.7,177.3,72.7z"/>
	<path id="XMLID_17_" class="st0" d="M201.3,73.5c0,0.9-0.5,1.3-1.4,1.3c-0.4,0-1,0-1.9-0.1c-0.8-0.1-1.4-0.1-1.8-0.1
		c-1.9,0-3.1,0.3-3.8,0.9c-0.7,0.6-1,1.7-1,3.5c0,1,0,2.4,0.1,4.4c0,2,0.1,3.4,0.1,4.4c0,0.6,0,1.6,0.1,2.9c0.1,1.3,0.1,2.2,0.1,2.9
		c0,0.5-0.4,0.8-1.1,0.9c-1.1,0.1-2.7,0.1-4.9,0.1c-2.1,0-3.8-0.1-5.1-0.2c-0.7-0.1-1.1-0.5-1.1-1.1c0-1.8,0-4.5,0-8
		c0-3.6,0-6.2,0-8c0-5.2-0.5-9.5-1.4-12.9c0-0.2-0.1-0.4-0.1-0.5c0-0.3,0.2-0.6,0.5-0.7c1.2-0.1,3-0.4,5.4-0.7c3.5-0.7,5.3-1,5.4-1
		c0.4,0,0.7,0.7,0.8,2.1c0.1,1.4,0.3,2.1,0.6,2.1c-0.3,0,0.6-0.6,2.7-1.8c2.1-1.2,4.2-1.8,6.2-1.8c1.2,0,1.9,0.3,1.9,0.8
		c0,0.6-0.1,1.6-0.2,2.7c-0.1,1.3-0.2,2.2-0.2,2.7c0,0.6,0,1.5,0,2.6C201.3,72.2,201.3,73,201.3,73.5z"/>
	<path id="XMLID_19_" class="st0" d="M234.1,76.1c0,2.3-0.7,3.5-2.2,3.8c-0.2,0-2.6,0.3-6.9,0.7c-2.6,0.3-6.6,0.6-11.8,1
		c0.3,1.4,1.3,2.6,2.8,3.3c1.3,0.6,2.8,0.9,4.4,0.9c2,0,4-0.5,6-1.6c0.8-0.5,1.7-1.1,2.5-1.6c0.5,0.2,1.3,1.4,2.4,3.4
		c1.1,2.1,1.7,3.4,1.7,3.9c0,0.2-0.2,0.4-0.5,0.8c-2.7,2.9-6.9,4.4-12.7,4.4c-5.3,0-9.6-1.5-12.8-4.6c-3.3-3.1-5-7.3-5-12.6
		c0-5.1,1.5-9.3,4.5-12.6c3.1-3.4,7.2-5.1,12.2-5.1c4.3,0,7.9,1.6,10.9,4.7C232.6,68.1,234.1,71.8,234.1,76.1z M222.4,74.1
		c0-1.4-0.5-2.6-1.5-3.6c-1-1-2.2-1.6-3.5-1.6c-1.4,0-2.6,0.6-3.5,1.8c-0.8,1.1-1.3,2.4-1.3,3.8c0,0.6,0.3,0.9,0.9,0.9
		c1.6,0,4.2-0.3,7.7-0.8C222.1,74.5,222.4,74.3,222.4,74.1z"/>
	<path id="XMLID_22_" class="st0" d="M266.7,76.1c0,2.3-0.7,3.5-2.2,3.8c-0.2,0-2.6,0.3-6.9,0.7c-2.6,0.3-6.6,0.6-11.8,1
		c0.3,1.4,1.3,2.6,2.8,3.3c1.3,0.6,2.8,0.9,4.4,0.9c2,0,4-0.5,6-1.6c0.8-0.5,1.7-1.1,2.5-1.6c0.5,0.2,1.3,1.4,2.4,3.4
		c1.1,2.1,1.7,3.4,1.7,3.9c0,0.2-0.2,0.4-0.5,0.8c-2.7,2.9-6.9,4.4-12.7,4.4c-5.3,0-9.6-1.5-12.8-4.6c-3.3-3.1-5-7.3-5-12.6
		c0-5.1,1.5-9.3,4.5-12.6c3.1-3.4,7.2-5.1,12.2-5.1c4.3,0,7.9,1.6,10.9,4.7C265.2,68.1,266.7,71.8,266.7,76.1z M255,74.1
		c0-1.4-0.5-2.6-1.5-3.6c-1-1-2.2-1.6-3.5-1.6c-1.4,0-2.6,0.6-3.5,1.8c-0.8,1.1-1.3,2.4-1.3,3.8c0,0.6,0.3,0.9,0.9,0.9
		c1.6,0,4.2-0.3,7.7-0.8C254.7,74.5,255,74.3,255,74.1z"/>
	<path id="XMLID_25_" class="st0" d="M291.1,84.5c0,0.7-0.1,1.7-0.3,3c-0.2,1.4-0.3,2.4-0.3,3c0,0.6-0.1,1-0.2,1.2
		c-0.1,0.2-0.5,0.4-1.1,0.8c-2.9,1.6-6.1,2.4-9.6,2.4c-6.4,0-9.7-2.5-9.7-7.4c0-1.5,0.1-3.7,0.2-6.6c0.1-3,0.2-5.2,0.2-6.6
		c0-1-0.6-1.5-1.7-1.5c-0.1,0-0.2,0-0.4,0c-0.2,0-0.3,0-0.4,0c-0.8,0-1.3-0.3-1.3-0.9c0-0.4,0-0.9,0.1-1.6c0.1-0.7,0.1-1.3,0.1-1.6
		c0-0.5,0-1.2-0.1-2.1c-0.1-1-0.1-1.7-0.1-2.1c0-0.4,0.7-0.7,2.1-0.7c0.8,0,1.2-0.2,1.3-0.7c0.1-0.8,0.2-2.2,0.1-4
		c-0.1-2.9-0.1-4.2-0.1-4.1c0-2.6,0.2-3.9,0.7-3.9c0.6,0,1.5,0.1,2.6,0.4c1.3,0.3,2.2,0.5,2.6,0.5c1.1,0.2,2.9,0.4,5.1,0.6
		c0.6,0,0.8,0.2,0.8,0.6c0,0.9-0.1,2.2-0.2,4c-0.1,1.8-0.2,3.2-0.2,4.1c0,1.1,0.3,1.6,1,1.6c0.8,0,2,0,3.5-0.1
		c1.6-0.1,2.8-0.1,3.6-0.1c0.5,0,0.7,0.2,0.7,0.5c0,0.5-0.1,1.3-0.2,2.3c-0.1,1-0.2,1.8-0.2,2.3c0,0.5,0,1.3,0,2.3c0,1,0,1.8,0,2.3
		c0,0.5-0.3,0.7-1,0.7c-0.4,0-1.2,0-2.2-0.1c-1,0-1.8,0-2.2,0h-2.5c-0.3,0-0.5,0.5-0.5,1.5c0,0.5,0,1.3,0,2.4c0,1.1,0,1.9,0,2.4
		c0,1.9,0.2,3.2,0.6,3.9c0.6,1,1.8,1.4,3.5,1.4c0.6,0,1.4-0.1,2.4-0.4c1-0.3,1.8-0.4,2.2-0.4C290.8,83.7,291.1,84,291.1,84.5z"/>
	<path id="XMLID_27_" class="st0" d="M305.2,72.9c0,2.3,0,5.6,0.1,10.1c0.1,4.5,0.1,7.8,0.1,10c0,0.6-0.3,1-0.8,1.2
		c-0.8,0.2-2.5,0.3-5.1,0.3c-2.7,0-4.4-0.1-5.1-0.3c-0.5-0.1-0.8-0.3-0.9-0.6c0-0.1-0.1-0.6-0.1-1.4c0-2.1,0-5.3,0.1-9.6
		c0.1-4.3,0.1-7.5,0.1-9.7c0-8.8-0.2-15.8-0.7-21c0-0.5-0.1-0.8-0.1-1c0-0.6,0.3-0.9,0.9-0.9c0.6,0,1.6,0.1,2.9,0.3
		c1.3,0.2,2.2,0.3,2.9,0.3c0.6,0,1.6-0.1,2.9-0.2c1.3-0.2,2.3-0.2,2.9-0.2c0.5,0,0.8,0.3,0.8,0.9c0,0.1,0,0.4-0.1,0.9
		C305.5,58,305.2,65,305.2,72.9z"/>
	<path id="XMLID_30_" class="st0" d="M363.4,93c0,0.8-0.3,1.2-1,1.3c-0.7,0.1-2.3,0.1-4.9,0.1c-2.7,0-4.4-0.1-5.1-0.2
		c-0.7-0.1-1-0.7-1-1.6c0-1,0-2.6,0.1-4.6c0.1-2,0.1-3.6,0.1-4.6c0-3.9,0-6.7-0.1-8.3c-0.1-2.7-1.4-4-3.8-4c-1,0-2.1,0.4-3.1,1.3
		c-1,0.9-1.6,1.9-1.7,2.9c-0.1,0.9-0.1,3.7-0.1,8.2c0,1,0,2.6,0.1,4.8c0.1,2.1,0.1,3.7,0.1,4.8c0,0.7-0.3,1.1-1,1.1h-10.1
		c-0.6,0-0.9-0.5-0.9-1.4c0-1,0-2.6,0.1-4.7c0.1-2.1,0.1-3.7,0.1-4.7c0-0.8,0-2.1-0.1-3.7c0-1.7-0.1-2.9-0.1-3.8
		c0-3.2-1.2-4.8-3.6-4.8c-1,0-2,0.4-3.2,1.1c-1.2,0.8-1.9,1.7-1.9,2.6c0,2,0,5.1,0,9.1c0,4,0,7.1,0,9.1c0,0.6-0.1,0.9-0.2,1
		c-0.1,0.1-0.5,0.2-1,0.3c-1,0.1-2.6,0.1-4.7,0.1c-1.4,0-3-0.1-4.8-0.2c-0.5,0-0.9-0.1-1-0.2c-0.1-0.1-0.2-0.4-0.2-1
		c0-1.8,0-4.5,0-8c0-3.6,0-6.2,0-8c0-3.7-0.3-7.8-0.8-12.3c0-0.3-0.1-0.5-0.1-0.6c0-0.4,0.2-0.6,0.5-0.8c0.5-0.2,1.4-0.4,2.8-0.5
		c1.7-0.2,2.7-0.3,3-0.3c0.2,0,1.1-0.3,2.6-0.7c1.1-0.3,2-0.5,2.6-0.5c0.4,0,0.6,0.8,0.7,2.3c0,1.5,0.1,2.3,0.3,2.3
		c0.2-0.1,0.5-0.2,0.8-0.5c2-1.6,3.6-2.6,4.7-3.2c1.7-0.8,3.6-1.2,5.6-1.2c2.1,0,3.9,0.5,5.5,1.4c1.8,1,3,2.5,3.5,4.3
		c1.2-1.6,2.8-3,4.9-4c2.1-1.1,4.1-1.6,6.1-1.6c2.9,0,5.3,0.7,7.2,2c2.1,1.5,3.1,3.7,3.1,6.6c0,1.2,0,3-0.1,5.3
		c-0.1,2.4-0.1,4.2-0.1,5.3c0,1.4,0,3.5,0.1,6.3C363.4,89.5,363.4,91.6,363.4,93z"/>
	<path id="XMLID_32_" class="st0" d="M398.7,76.1c0,2.3-0.7,3.5-2.2,3.8c-0.2,0-2.6,0.3-6.9,0.7c-2.6,0.3-6.6,0.6-11.8,1
		c0.3,1.4,1.3,2.6,2.8,3.3c1.3,0.6,2.8,0.9,4.4,0.9c2,0,4-0.5,6-1.6c0.8-0.5,1.7-1.1,2.5-1.6c0.5,0.2,1.3,1.4,2.4,3.4
		c1.1,2.1,1.7,3.4,1.7,3.9c0,0.2-0.2,0.4-0.5,0.8c-2.7,2.9-6.9,4.4-12.7,4.4c-5.3,0-9.6-1.5-12.8-4.6c-3.3-3.1-5-7.3-5-12.6
		c0-5.1,1.5-9.3,4.5-12.6c3.1-3.4,7.2-5.1,12.2-5.1c4.3,0,7.9,1.6,10.9,4.7C397.2,68.1,398.7,71.8,398.7,76.1z M387,74.1
		c0-1.4-0.5-2.6-1.5-3.6c-1-1-2.2-1.6-3.5-1.6c-1.4,0-2.6,0.6-3.5,1.8c-0.8,1.1-1.3,2.4-1.3,3.8c0,0.6,0.3,0.9,0.9,0.9
		c1.6,0,4.2-0.3,7.7-0.8C386.6,74.5,387,74.3,387,74.1z"/>
</g>
<circle id="XMLID_1_" class="st0" cx="106.8" cy="30.3" r="17.1"/>
<circle id="XMLID_35_" class="st0" cx="105.5" cy="122.9" r="17.1"/>
<line id="XMLID_38_" class="st1" x1="105.5" y1="26.5" x2="137.6" y2="66.2"/>
<line id="XMLID_39_" class="st1" x1="105.5" y1="125.2" x2="137.6" y2="88.2"/>
<path id="XMLID_157_" class="st0" d="M299.4,13.8c-9.4,0-17.1,7.7-17.1,17.1S289.9,48,299.4,48s17.1-7.7,17.1-17.1
	S308.8,13.8,299.4,13.8z M305.4,38.6l-1.1,0.9l-6.1-7.2l-0.7,0.6l-0.9-1.1l0.7-0.6l-0.8-0.9l1.1-0.9l0.8,0.9l10.5-8.4l0.9,1.1
	l-10.5,8.3L305.4,38.6z"/>
</svg>
